<mxfile host="65bd71144e">
    <diagram id="RvW8-lsRiUN8riBqhmNN" name="Page-1">
        <mxGraphModel dx="786" dy="699" grid="1" gridSize="10" guides="1" tooltips="1" connect="1" arrows="1" fold="1" page="1" pageScale="1" pageWidth="850" pageHeight="1100" math="0" shadow="0">
            <root>
                <mxCell id="0"/>
                <mxCell id="1" parent="0"/>
                <mxCell id="13" value="" style="shape=umlLifeline;participant=umlActor;perimeter=lifelinePerimeter;whiteSpace=wrap;html=1;container=1;collapsible=0;recursiveResize=0;verticalAlign=top;spacingTop=36;outlineConnect=0;" vertex="1" parent="1">
                    <mxGeometry x="100" y="170" width="20" height="140" as="geometry"/>
                </mxCell>
                <mxCell id="15" value="" style="html=1;points=[];perimeter=orthogonalPerimeter;" vertex="1" parent="13">
                    <mxGeometry x="5" y="70" width="10" height="50" as="geometry"/>
                </mxCell>
                <mxCell id="14" value=":UI" style="shape=umlLifeline;perimeter=lifelinePerimeter;whiteSpace=wrap;html=1;container=1;collapsible=0;recursiveResize=0;outlineConnect=0;" vertex="1" parent="1">
                    <mxGeometry x="200" y="170" width="100" height="140" as="geometry"/>
                </mxCell>
                <mxCell id="19" value="" style="html=1;points=[];perimeter=orthogonalPerimeter;" vertex="1" parent="14">
                    <mxGeometry x="45" y="70" width="10" height="50" as="geometry"/>
                </mxCell>
                <mxCell id="16" value=":Circuit Breaker" style="shape=umlLifeline;perimeter=lifelinePerimeter;whiteSpace=wrap;html=1;container=1;collapsible=0;recursiveResize=0;outlineConnect=0;" vertex="1" parent="1">
                    <mxGeometry x="350" y="170" width="100" height="140" as="geometry"/>
                </mxCell>
                <mxCell id="39" style="edgeStyle=none;html=1;" edge="1" parent="16" source="22" target="16">
                    <mxGeometry relative="1" as="geometry"/>
                </mxCell>
                <mxCell id="22" value="" style="html=1;points=[];perimeter=orthogonalPerimeter;" vertex="1" parent="16">
                    <mxGeometry x="45" y="80" width="10" height="40" as="geometry"/>
                </mxCell>
                <mxCell id="17" value=":Kafka-MS" style="shape=umlLifeline;perimeter=lifelinePerimeter;whiteSpace=wrap;html=1;container=1;collapsible=0;recursiveResize=0;outlineConnect=0;" vertex="1" parent="1">
                    <mxGeometry x="500" y="170" width="100" height="140" as="geometry"/>
                </mxCell>
                <mxCell id="40" value="" style="html=1;points=[];perimeter=orthogonalPerimeter;" vertex="1" parent="17">
                    <mxGeometry x="45" y="80" width="10" height="30" as="geometry"/>
                </mxCell>
                <mxCell id="20" value="submit configuration" style="html=1;verticalAlign=bottom;startArrow=oval;endArrow=block;startSize=8;exitX=1.031;exitY=0.029;exitDx=0;exitDy=0;exitPerimeter=0;" edge="1" target="19" parent="1" source="15">
                    <mxGeometry x="-0.0646" y="-18" relative="1" as="geometry">
                        <mxPoint x="110" y="240" as="sourcePoint"/>
                        <mxPoint as="offset"/>
                    </mxGeometry>
                </mxCell>
                <mxCell id="23" value="POST configuration" style="edgeStyle=none;html=1;entryX=-0.126;entryY=0.059;entryDx=0;entryDy=0;entryPerimeter=0;exitX=0.985;exitY=0.202;exitDx=0;exitDy=0;exitPerimeter=0;" edge="1" parent="1" source="19" target="22">
                    <mxGeometry x="-0.0598" y="-9" relative="1" as="geometry">
                        <mxPoint as="offset"/>
                    </mxGeometry>
                </mxCell>
                <mxCell id="28" value="POST to topic" style="edgeStyle=none;html=1;exitX=1.026;exitY=0.05;exitDx=0;exitDy=0;exitPerimeter=0;entryX=-0.217;entryY=0.021;entryDx=0;entryDy=0;entryPerimeter=0;" edge="1" parent="1" source="22">
                    <mxGeometry x="-0.0592" y="-6" relative="1" as="geometry">
                        <mxPoint x="542.8299999999999" y="253.15000000000003" as="targetPoint"/>
                        <mxPoint as="offset"/>
                    </mxGeometry>
                </mxCell>
                <mxCell id="36" value="return" style="html=1;verticalAlign=bottom;endArrow=open;dashed=1;endSize=8;exitX=-0.056;exitY=0.172;exitDx=0;exitDy=0;exitPerimeter=0;entryX=0.894;entryY=0.57;entryDx=0;entryDy=0;entryPerimeter=0;" edge="1" parent="1" target="22">
                    <mxGeometry x="0.0548" y="16" relative="1" as="geometry">
                        <mxPoint x="544.4399999999999" y="275.8" as="sourcePoint"/>
                        <mxPoint x="410" y="290" as="targetPoint"/>
                        <mxPoint as="offset"/>
                    </mxGeometry>
                </mxCell>
                <mxCell id="37" value="return" style="html=1;verticalAlign=bottom;endArrow=open;dashed=1;endSize=8;exitX=-0.136;exitY=0.749;exitDx=0;exitDy=0;exitPerimeter=0;" edge="1" parent="1" source="22">
                    <mxGeometry x="0.0544" y="15" relative="1" as="geometry">
                        <mxPoint x="393.0999999999999" y="288.79999999999995" as="sourcePoint"/>
                        <mxPoint x="260" y="280" as="targetPoint"/>
                        <mxPoint as="offset"/>
                    </mxGeometry>
                </mxCell>
                <mxCell id="38" value="return" style="html=1;verticalAlign=bottom;endArrow=open;dashed=1;endSize=8;exitX=-0.096;exitY=0.902;exitDx=0;exitDy=0;exitPerimeter=0;" edge="1" parent="1" source="19" target="15">
                    <mxGeometry relative="1" as="geometry">
                        <mxPoint x="244.99999999999997" y="310" as="sourcePoint"/>
                        <mxPoint x="106.90000000000006" y="312.4" as="targetPoint"/>
                    </mxGeometry>
                </mxCell>
                <mxCell id="43" value=":UI" style="shape=umlLifeline;perimeter=lifelinePerimeter;whiteSpace=wrap;html=1;container=1;collapsible=0;recursiveResize=0;outlineConnect=0;" vertex="1" parent="1">
                    <mxGeometry x="200" y="390" width="100" height="250" as="geometry"/>
                </mxCell>
                <mxCell id="117" value="" style="html=1;points=[];perimeter=orthogonalPerimeter;" vertex="1" parent="43">
                    <mxGeometry x="45" y="154" width="10" height="13" as="geometry"/>
                </mxCell>
                <mxCell id="118" value="" style="html=1;points=[];perimeter=orthogonalPerimeter;" vertex="1" parent="43">
                    <mxGeometry x="45" y="220" width="10" height="13" as="geometry"/>
                </mxCell>
                <mxCell id="48" value=":Kafka-MS" style="shape=umlLifeline;perimeter=lifelinePerimeter;whiteSpace=wrap;html=1;container=1;collapsible=0;recursiveResize=0;outlineConnect=0;" vertex="1" parent="1">
                    <mxGeometry x="495" y="390" width="100" height="270" as="geometry"/>
                </mxCell>
                <mxCell id="60" value="" style="html=1;points=[];perimeter=orthogonalPerimeter;" vertex="1" parent="48">
                    <mxGeometry x="45" y="70" width="10" height="20" as="geometry"/>
                </mxCell>
                <mxCell id="96" value="return" style="html=1;verticalAlign=bottom;endArrow=open;dashed=1;endSize=8;exitX=-0.161;exitY=0.144;exitDx=0;exitDy=0;exitPerimeter=0;" edge="1" parent="48" source="84">
                    <mxGeometry x="0.0531" y="10" relative="1" as="geometry">
                        <mxPoint x="135" y="90" as="sourcePoint"/>
                        <mxPoint x="55" y="90" as="targetPoint"/>
                        <mxPoint as="offset"/>
                    </mxGeometry>
                </mxCell>
                <mxCell id="100" value="" style="html=1;points=[];perimeter=orthogonalPerimeter;" vertex="1" parent="48">
                    <mxGeometry x="45" y="115" width="10" height="25" as="geometry"/>
                </mxCell>
                <mxCell id="101" value="" style="html=1;points=[];perimeter=orthogonalPerimeter;" vertex="1" parent="48">
                    <mxGeometry x="45" y="180" width="10" height="30" as="geometry"/>
                </mxCell>
                <mxCell id="109" style="edgeStyle=none;html=1;exitX=1.06;exitY=0.258;exitDx=0;exitDy=0;exitPerimeter=0;entryX=1.086;entryY=0.065;entryDx=0;entryDy=0;entryPerimeter=0;" edge="1" parent="48">
                    <mxGeometry relative="1" as="geometry">
                        <mxPoint x="194.7399999999999" y="182.2299999999999" as="sourcePoint"/>
                        <mxPoint x="55" y="179.995" as="targetPoint"/>
                    </mxGeometry>
                </mxCell>
                <mxCell id="110" value="POST to &lt;br&gt;result topic" style="edgeLabel;html=1;align=center;verticalAlign=middle;resizable=0;points=[];" vertex="1" connectable="0" parent="109">
                    <mxGeometry x="0.2511" y="1" relative="1" as="geometry">
                        <mxPoint x="21" y="-1" as="offset"/>
                    </mxGeometry>
                </mxCell>
                <mxCell id="111" value="return" style="html=1;verticalAlign=bottom;endArrow=open;dashed=1;endSize=8;exitX=1.171;exitY=0.923;exitDx=0;exitDy=0;exitPerimeter=0;entryX=1.102;entryY=0.377;entryDx=0;entryDy=0;entryPerimeter=0;" edge="1" parent="48">
                    <mxGeometry x="0.0648" y="-17" relative="1" as="geometry">
                        <mxPoint x="55.84999999999991" y="201.44499999999994" as="sourcePoint"/>
                        <mxPoint x="195.15999999999997" y="202.45999999999992" as="targetPoint"/>
                        <mxPoint as="offset"/>
                    </mxGeometry>
                </mxCell>
                <mxCell id="113" value="" style="html=1;points=[];perimeter=orthogonalPerimeter;" vertex="1" parent="48">
                    <mxGeometry x="45" y="153.5" width="10" height="13" as="geometry"/>
                </mxCell>
                <mxCell id="115" value="" style="html=1;points=[];perimeter=orthogonalPerimeter;" vertex="1" parent="48">
                    <mxGeometry x="45" y="220" width="10" height="13" as="geometry"/>
                </mxCell>
                <mxCell id="50" value=":Algorithm Komp." style="shape=umlLifeline;perimeter=lifelinePerimeter;whiteSpace=wrap;html=1;container=1;collapsible=0;recursiveResize=0;outlineConnect=0;" vertex="1" parent="1">
                    <mxGeometry x="635" y="390" width="100" height="260" as="geometry"/>
                </mxCell>
                <mxCell id="84" value="" style="html=1;points=[];perimeter=orthogonalPerimeter;" vertex="1" parent="50">
                    <mxGeometry x="45" y="70" width="10" height="150" as="geometry"/>
                </mxCell>
                <mxCell id="87" value="" style="html=1;points=[];perimeter=orthogonalPerimeter;" vertex="1" parent="50">
                    <mxGeometry x="55" y="95" width="10" height="45" as="geometry"/>
                </mxCell>
                <mxCell id="88" value="self call" style="edgeStyle=orthogonalEdgeStyle;html=1;align=left;spacingLeft=2;endArrow=block;rounded=0;entryX=1;entryY=0;exitX=0.971;exitY=0.03;exitDx=0;exitDy=0;exitPerimeter=0;" edge="1" target="87" parent="50" source="84">
                    <mxGeometry relative="1" as="geometry">
                        <mxPoint x="60" y="75" as="sourcePoint"/>
                        <Array as="points">
                            <mxPoint x="90" y="75"/>
                            <mxPoint x="90" y="95"/>
                        </Array>
                    </mxGeometry>
                </mxCell>
                <mxCell id="104" value="" style="html=1;points=[];perimeter=orthogonalPerimeter;" vertex="1" parent="50">
                    <mxGeometry x="55.29" y="169.91" width="10" height="40.09" as="geometry"/>
                </mxCell>
                <mxCell id="105" value="self call" style="edgeStyle=orthogonalEdgeStyle;html=1;align=left;spacingLeft=2;endArrow=block;rounded=0;entryX=1;entryY=0;exitX=0.971;exitY=0.03;exitDx=0;exitDy=0;exitPerimeter=0;" edge="1" parent="50" target="104">
                    <mxGeometry relative="1" as="geometry">
                        <mxPoint x="55" y="150.00999999999988" as="sourcePoint"/>
                        <Array as="points">
                            <mxPoint x="90.28999999999996" y="149.90999999999997"/>
                            <mxPoint x="90.28999999999996" y="169.90999999999997"/>
                        </Array>
                    </mxGeometry>
                </mxCell>
                <mxCell id="62" value="notify about topic" style="edgeStyle=none;html=1;exitX=1.037;exitY=0.06;exitDx=0;exitDy=0;exitPerimeter=0;entryX=-0.255;entryY=0.003;entryDx=0;entryDy=0;entryPerimeter=0;" edge="1" parent="1" source="60" target="84">
                    <mxGeometry relative="1" as="geometry"/>
                </mxCell>
                <mxCell id="68" value="UI" style="html=1;" vertex="1" parent="1">
                    <mxGeometry x="83" y="820" width="110" height="50" as="geometry"/>
                </mxCell>
                <mxCell id="72" value="notify about topic" style="edgeStyle=none;html=1;entryX=0;entryY=0.25;entryDx=0;entryDy=0;exitX=1;exitY=0.25;exitDx=0;exitDy=0;" edge="1" parent="1" source="70" target="71">
                    <mxGeometry relative="1" as="geometry"/>
                </mxCell>
                <mxCell id="81" value="notify about topic" style="edgeStyle=none;html=1;entryX=1;entryY=0.5;entryDx=0;entryDy=0;" edge="1" parent="1" source="70" target="68">
                    <mxGeometry relative="1" as="geometry"/>
                </mxCell>
                <mxCell id="70" value="Config-Skipper" style="html=1;" vertex="1" parent="1">
                    <mxGeometry x="358" y="820" width="110" height="50" as="geometry"/>
                </mxCell>
                <mxCell id="73" style="edgeStyle=none;html=1;entryX=1;entryY=0.75;entryDx=0;entryDy=0;exitX=0;exitY=0.75;exitDx=0;exitDy=0;" edge="1" parent="1" source="71" target="70">
                    <mxGeometry relative="1" as="geometry"/>
                </mxCell>
                <mxCell id="78" value="invoked" style="edgeStyle=none;html=1;entryX=1;entryY=0.5;entryDx=0;entryDy=0;" edge="1" parent="1" source="71" target="74">
                    <mxGeometry relative="1" as="geometry">
                        <Array as="points">
                            <mxPoint x="768" y="920"/>
                        </Array>
                    </mxGeometry>
                </mxCell>
                <mxCell id="79" value="invoked" style="edgeStyle=none;html=1;entryX=1;entryY=0.5;entryDx=0;entryDy=0;" edge="1" parent="1" source="71" target="75">
                    <mxGeometry relative="1" as="geometry">
                        <Array as="points">
                            <mxPoint x="768" y="950"/>
                        </Array>
                    </mxGeometry>
                </mxCell>
                <mxCell id="71" value="Alg Komp" style="html=1;" vertex="1" parent="1">
                    <mxGeometry x="608" y="820" width="110" height="50" as="geometry"/>
                </mxCell>
                <mxCell id="76" style="edgeStyle=none;html=1;entryX=0.5;entryY=1;entryDx=0;entryDy=0;" edge="1" parent="1" source="74" target="70">
                    <mxGeometry relative="1" as="geometry">
                        <Array as="points">
                            <mxPoint x="413" y="920"/>
                        </Array>
                    </mxGeometry>
                </mxCell>
                <mxCell id="80" value="POST to topic" style="edgeLabel;html=1;align=center;verticalAlign=middle;resizable=0;points=[];" vertex="1" connectable="0" parent="76">
                    <mxGeometry x="-0.1035" y="1" relative="1" as="geometry">
                        <mxPoint as="offset"/>
                    </mxGeometry>
                </mxCell>
                <mxCell id="74" value="Opt Equip." style="html=1;" vertex="1" parent="1">
                    <mxGeometry x="618" y="910" width="90" height="30" as="geometry"/>
                </mxCell>
                <mxCell id="77" value="POST to topic" style="edgeStyle=none;html=1;entryX=0.5;entryY=1;entryDx=0;entryDy=0;" edge="1" parent="1" source="75" target="70">
                    <mxGeometry x="-0.2784" y="-2" relative="1" as="geometry">
                        <Array as="points">
                            <mxPoint x="413" y="970"/>
                        </Array>
                        <mxPoint as="offset"/>
                    </mxGeometry>
                </mxCell>
                <mxCell id="75" value="Opt Equip. 2" style="html=1;" vertex="1" parent="1">
                    <mxGeometry x="618" y="960" width="90" height="30" as="geometry"/>
                </mxCell>
                <mxCell id="97" style="edgeStyle=none;html=1;exitX=-0.055;exitY=0.454;exitDx=0;exitDy=0;exitPerimeter=0;entryX=1.086;entryY=0.065;entryDx=0;entryDy=0;entryPerimeter=0;" edge="1" parent="1" source="87" target="100">
                    <mxGeometry relative="1" as="geometry">
                        <mxPoint x="550" y="524" as="targetPoint"/>
                    </mxGeometry>
                </mxCell>
                <mxCell id="99" value="POST to &lt;br&gt;result topic" style="edgeLabel;html=1;align=center;verticalAlign=middle;resizable=0;points=[];" vertex="1" connectable="0" parent="97">
                    <mxGeometry x="0.2511" y="1" relative="1" as="geometry">
                        <mxPoint x="21" y="-1" as="offset"/>
                    </mxGeometry>
                </mxCell>
                <mxCell id="103" value="return" style="html=1;verticalAlign=bottom;endArrow=open;dashed=1;endSize=8;exitX=1.171;exitY=0.923;exitDx=0;exitDy=0;exitPerimeter=0;entryX=0.075;entryY=0.937;entryDx=0;entryDy=0;entryPerimeter=0;" edge="1" parent="1" source="100" target="87">
                    <mxGeometry x="0.0648" y="-17" relative="1" as="geometry">
                        <mxPoint x="686.7099999999999" y="559.9999999999999" as="sourcePoint"/>
                        <mxPoint x="559.9999999999999" y="560.12" as="targetPoint"/>
                        <mxPoint as="offset"/>
                    </mxGeometry>
                </mxCell>
                <mxCell id="114" value="&lt;span style=&quot;color: rgb(240, 240, 240); font-family: Helvetica; font-size: 11px; font-style: normal; font-variant-ligatures: normal; font-variant-caps: normal; font-weight: 400; letter-spacing: normal; orphans: 2; text-align: center; text-indent: 0px; text-transform: none; widows: 2; word-spacing: 0px; -webkit-text-stroke-width: 0px; background-color: rgb(24, 20, 29); text-decoration-thickness: initial; text-decoration-style: initial; text-decoration-color: initial; float: none; display: inline !important;&quot;&gt;notify about&lt;/span&gt;&lt;br style=&quot;border-color: rgb(0, 0, 0); color: rgb(240, 240, 240); font-family: Helvetica; font-size: 11px; font-style: normal; font-variant-ligatures: normal; font-variant-caps: normal; font-weight: 400; letter-spacing: normal; orphans: 2; text-align: center; text-indent: 0px; text-transform: none; widows: 2; word-spacing: 0px; -webkit-text-stroke-width: 0px; text-decoration-thickness: initial; text-decoration-style: initial; text-decoration-color: initial;&quot;&gt;&lt;span style=&quot;color: rgb(240, 240, 240); font-family: Helvetica; font-size: 11px; font-style: normal; font-variant-ligatures: normal; font-variant-caps: normal; font-weight: 400; letter-spacing: normal; orphans: 2; text-align: center; text-indent: 0px; text-transform: none; widows: 2; word-spacing: 0px; -webkit-text-stroke-width: 0px; background-color: rgb(24, 20, 29); text-decoration-thickness: initial; text-decoration-style: initial; text-decoration-color: initial; float: none; display: inline !important;&quot;&gt;result topic&lt;/span&gt;" style="edgeStyle=none;html=1;entryX=0.954;entryY=-0.016;entryDx=0;entryDy=0;entryPerimeter=0;" edge="1" parent="1" source="113" target="117">
                    <mxGeometry x="-0.0191" y="-14" relative="1" as="geometry">
                        <mxPoint x="250.0000000000001" y="540" as="targetPoint"/>
                        <mxPoint as="offset"/>
                    </mxGeometry>
                </mxCell>
                <mxCell id="116" value="notify about &lt;br&gt;result topic" style="edgeStyle=none;html=1;entryX=0.745;entryY=0.09;entryDx=0;entryDy=0;entryPerimeter=0;exitX=-0.26;exitY=0.03;exitDx=0;exitDy=0;exitPerimeter=0;" edge="1" parent="1" source="115" target="118">
                    <mxGeometry x="-0.0358" y="-11" relative="1" as="geometry">
                        <mxPoint as="offset"/>
                    </mxGeometry>
                </mxCell>
                <mxCell id="119" value="return" style="html=1;verticalAlign=bottom;endArrow=open;dashed=1;endSize=8;exitX=0.985;exitY=0.965;exitDx=0;exitDy=0;exitPerimeter=0;entryX=-0.192;entryY=0.927;entryDx=0;entryDy=0;entryPerimeter=0;" edge="1" parent="1" source="117" target="113">
                    <mxGeometry x="0.0642" y="-17" relative="1" as="geometry">
                        <mxPoint x="285.99999999999994" y="580.9150000000001" as="sourcePoint"/>
                        <mxPoint x="425.04" y="580.005" as="targetPoint"/>
                        <mxPoint as="offset"/>
                    </mxGeometry>
                </mxCell>
                <mxCell id="120" value="return" style="html=1;verticalAlign=bottom;endArrow=open;dashed=1;endSize=8;exitX=0.886;exitY=1.001;exitDx=0;exitDy=0;exitPerimeter=0;" edge="1" parent="1" source="118">
                    <mxGeometry x="0.0642" y="-17" relative="1" as="geometry">
                        <mxPoint x="258.39000000000004" y="620.995" as="sourcePoint"/>
                        <mxPoint x="540" y="620" as="targetPoint"/>
                        <mxPoint as="offset"/>
                    </mxGeometry>
                </mxCell>
            </root>
        </mxGraphModel>
    </diagram>
</mxfile>